<?xml version="1.0" encoding="utf-8"?>
<!-- Generator: Adobe Illustrator 28.0.0, SVG Export Plug-In . SVG Version: 6.00 Build 0)  -->
<svg version="1.1" xmlns="http://www.w3.org/2000/svg" xmlns:xlink="http://www.w3.org/1999/xlink" x="0px" y="0px"
	 viewBox="0 0 526 350" style="enable-background:new 0 0 526 350;" xml:space="preserve">
<style type="text/css">
	.st0{display:none;}
	.st1{display:inline;}
	.st2{fill:#FBBA00;}
	.st3{fill:#1A4E24;}
	.st4{fill:#E73A39;}
	.st5{fill:#1F5026;}
	.st6{fill:#FFFFFF;}
</style>
<g id="Calque_2" class="st0">
	<g id="adapQ7.tif" class="st1">
		
			<image style="overflow:visible;" width="645" height="429" id="Layer_0_00000023259247908236768060000012826647562556651958_" xlink:href="AC7B6046153D2745.png"  transform="matrix(1 0 0 1 -48.9379 -43.528)">
		</image>
	</g>
</g>
<g id="Calque_1">
	<path class="st2" d="M29,327.7c-6-6.6-9-15.8-9-27.5s3-20.9,9-27.5c6-6.6,14.1-10,24.3-10s18.3,3.3,24.2,9.9
		c6,6.6,8.9,15.8,8.9,27.5s-3,20.9-8.9,27.5c-6,6.6-14,9.9-24.2,9.9S35,334.4,29,327.7L29,327.7z"/>
	<path class="st3" d="M34.1,265.5c-4.2,4.2-6,9.9-5.4,15.4c5.5,0.6,11.2-1.2,15.4-5.4c4.2-4.2,6-9.9,5.4-15.4
		C44,259.5,38.3,261.3,34.1,265.5z"/>
	<g>
		<path class="st4" d="M63.7,315c0.6-8.9,5.1-17.5,13.6-25.6s17.1-12.3,26.1-12.6c8.9-0.3,16.9,3.3,24,10.6
			c7.1,7.3,10.3,15.4,9.6,24.4c-0.6,8.9-5.2,17.4-13.6,25.5s-17.1,12.4-26,12.7c-8.9,0.3-16.9-3.2-24-10.5
			C66.4,332.1,63.1,324,63.7,315L63.7,315z"/>
		<path class="st5" d="M116.7,279.8c-1.4,2.7-1.5,5.5-0.4,8.3c0.5,1.4,1.1,2.8,1.7,4.2c0.4,0.8,0.4,1.7-0.3,2.3
			c-0.7,0.6-1.5,0.6-2.3,0.2c-1.2-0.6-2.4-1.1-3.6-1.7c-2.9-1.4-5.9-1.5-8.8-0.2c-1.2,0.5-2.4,1-3.5,1.5c-0.9,0.4-1.7,0.5-2.4-0.2
			c-0.7-0.7-0.5-1.5-0.1-2.4c0.6-1.2,1.2-2.5,1.7-3.8c1.2-2.7,1.3-5.4,0.2-8.2c-0.5-1.3-1.1-2.6-1.7-3.9c-0.3-0.9-0.4-1.7,0.4-2.4
			c0.9-0.8,1.7-0.4,2.6,0.1c1.2,0.6,2.4,1.1,3.6,1.6c2.7,1.2,5.4,1.3,8.2,0.1c1.3-0.6,2.7-1.1,4-1.7c0.8-0.3,1.5-0.3,2.1,0.3
			c0.7,0.7,0.6,1.4,0.3,2.2C117.8,277.3,117.2,278.5,116.7,279.8L116.7,279.8z"/>
	</g>
	<path class="st6" d="M466.8,319.8c-0.3,0-0.5-0.1-0.7-0.3c-0.4-0.4-0.4-1,0-1.4c1.7-1.7,3.4-3.5,5.1-5.4c0.4-0.4,1-0.4,1.4-0.1
		c0.4,0.4,0.4,1,0.1,1.4c-1.7,1.9-3.5,3.7-5.2,5.4C467.3,319.7,467.1,319.8,466.8,319.8z"/>
	<path class="st6" d="M487.2,295c-0.2,0-0.4-0.1-0.6-0.2c-0.5-0.3-0.6-0.9-0.3-1.4c17-24.9,27-50.6,27.1-50.9
		c0.2-0.5,0.8-0.8,1.3-0.6c0.5,0.2,0.8,0.8,0.6,1.3c-0.1,0.3-10.1,26.2-27.3,51.3C487.8,294.8,487.5,295,487.2,295z"/>
	<path class="st6" d="M505.4,44c-0.3,0-0.6-0.1-0.8-0.4c-0.1-0.1-10.2-13.3-31.2-21.4c-0.5-0.2-0.8-0.8-0.6-1.3
		c0.2-0.5,0.8-0.8,1.3-0.6c21.6,8.2,31.7,21.5,32.1,22c0.3,0.4,0.2,1.1-0.2,1.4C505.8,43.9,505.6,44,505.4,44z"/>
	<path class="st6" d="M491.4,20.6c-0.2,0-0.4-0.1-0.6-0.2c-0.1-0.1-8.8-6.7-24.8-10.8c-0.5-0.1-0.9-0.7-0.7-1.2s0.7-0.9,1.2-0.7
		c16.4,4.2,25.1,10.9,25.5,11.2c0.4,0.3,0.5,1,0.2,1.4C492,20.5,491.7,20.6,491.4,20.6z"/>
	<path class="st6" d="M75.2,49.1c-2.4-7.1-6.3-13.6-11.4-19c-1.1-1.1-2.9,0.6-1.8,1.7c4.8,5.1,8.5,11.2,10.8,17.9
		c0.1,0.3,0.3,0.6,0.6,0.7c0.3,0.2,0.6,0.2,0.9,0.1c0.3-0.1,0.6-0.3,0.8-0.6C75.3,49.8,75.3,49.4,75.2,49.1L75.2,49.1z"/>
	<path class="st6" d="M64.8,52.9c-6.3-2.8-12.8-5.3-19.4-7.5c-1.5-0.5-2.2,1.9-0.7,2.4c6.6,2.2,13,4.7,19.4,7.5
		c0.3,0.1,0.6,0.1,0.9-0.1c0.3-0.2,0.5-0.4,0.6-0.7c0.1-0.3,0-0.7-0.1-0.9C65.4,53.2,65.1,53,64.8,52.9L64.8,52.9z"/>
	<path class="st6" d="M58.8,62.5c-5-1-10.1-1.4-15.1-1.1c-1.6,0.1-1.6,2.5,0,2.5c4.9-0.2,9.7,0.1,14.5,1c0.3,0.1,0.6,0,0.9-0.1
		c0.3-0.2,0.5-0.4,0.6-0.7c0.1-0.3,0.1-0.7-0.1-0.9C59.4,62.8,59.1,62.6,58.8,62.5L58.8,62.5z"/>
</g>
</svg>
