<?xml version="1.0" encoding="utf-8"?>
<!-- Generator: Adobe Illustrator 28.0.0, SVG Export Plug-In . SVG Version: 6.00 Build 0)  -->
<svg version="1.1" id="Calque_1" xmlns="http://www.w3.org/2000/svg" xmlns:xlink="http://www.w3.org/1999/xlink" x="0px" y="0px"
	 viewBox="0 0 170.8 201" style="enable-background:new 0 0 170.8 201;" xml:space="preserve">
<style type="text/css">
	.st0{fill:#E63A39;}
	.st1{fill:#FFFFFF;}
	.st2{fill:#1E5026;}
</style>
<path class="st0" d="M23.2,174C7.7,157,0,133.4,0,103.3c0-30.1,7.7-53.7,23.2-70.8c15.4-17,36.2-25.6,62.4-25.6
	c26.2,0,46.9,8.5,62.2,25.6c15.3,17,23,40.6,23,70.8c0,30.1-7.7,53.7-23,70.8c-15.3,17-36.1,25.6-62.2,25.6
	C59.4,199.6,38.6,191.1,23.2,174z"/>
<g>
	<path class="st1" d="M84.1,190.5c0-2.6,0.6-5.5,1.9-8.7c1.3-3.3,2.5-5.9,3.7-7.8c1.2-2,1.9-3,2.1-3c5.3,3.2,10.9,4.8,16.8,4.8
		c3.7,0,6.6-0.7,8.9-2.2c2.2-1.5,3.4-3.5,3.4-6.1s-1-4.3-3.1-5c-2.1-0.7-5.3-1.2-9.8-1.5H103c-1.1,0-2.1-1.4-3.1-4.1
		c-1-2.7-1.4-5.3-1.4-7.9c0-4.3,1.3-6.5,3.8-6.6l4-0.1c2.5,0,5.1-0.7,7.8-2.1c2.7-1.4,4.1-3.2,4.1-5.4c0-3.8-3.4-5.8-10.3-5.8
		c-5.1,0-10.1,1-14.8,3c-4.1-7.4-6.2-13.2-6.2-17.4c0-4.2,2.9-7.3,8.7-9.4c5.8-2.1,13.1-3.2,21.9-3.2c8.8,0,15.7,1.8,20.6,5.5
		c4.9,3.7,7.4,8.7,7.4,15c0,11.1-4.8,19.6-14.3,25.6c11.5,4.7,17.3,12.6,17.3,23.8c0,8.7-3.1,15.7-9.2,21.1c-6.1,5.4-14.9,8-26.4,8
		c-7.2,0-13.8-1-19.8-3.1C87.1,195.8,84.1,193.4,84.1,190.5z"/>
</g>
<path class="st2" d="M52.2,13.1c2.5,7.4,7.5,12.5,14.6,15.5c3.5,1.5,7.2,2.8,10.8,4.2c2.2,0.9,3.8,2.2,3.8,4.8
	c-0.1,2.4-1.6,3.7-3.7,4.5c-3.1,1.2-6.3,2.5-9.4,3.6c-7.8,2.9-13.2,8.3-16.1,16c-1.2,3.1-2.4,6.1-3.5,9.1c-0.8,2.3-2.1,4.1-4.8,4.1
	c-2.6,0-3.8-1.7-4.6-4c-1.2-3.3-2.6-6.6-3.9-10c-2.8-7.1-7.8-12.1-14.9-15c-3.4-1.4-6.8-2.6-10.3-3.8c-2.1-1.1-4-2.3-3.8-5.1
	c0.2-3,2.4-3.8,4.7-4.7c3.2-1.2,6.3-2.4,9.4-3.7c7-2.9,12-7.9,14.8-15c1.4-3.5,2.7-7,4.1-10.5c0.8-2,2.1-3.4,4.4-3.4
	c2.4,0,3.8,1.4,4.6,3.5C49.6,6.8,50.9,9.9,52.2,13.1z"/>
</svg>
