<?xml version="1.0" encoding="utf-8"?>
<!-- Generator: Adobe Illustrator 28.0.0, SVG Export Plug-In . SVG Version: 6.00 Build 0)  -->
<svg version="1.1" xmlns="http://www.w3.org/2000/svg" xmlns:xlink="http://www.w3.org/1999/xlink" x="0px" y="0px"
	 viewBox="0 0 390.14 345.83" style="enable-background:new 0 0 390.14 345.83;" xml:space="preserve">
<style type="text/css">
	.st0{fill:none;stroke:#372200;stroke-width:6;stroke-miterlimit:10;}
	.st1{fill:#372200;}
	.st2{fill:#E63A39;}
	.st3{fill:#1E5026;}
	.st4{fill:#FFFFFF;}
</style>
<g id="Calque_1">
	<path class="st0" d="M67.1,176.83C37.08,144.57,22.71,98.37,29.12,54.77"/>
	<path class="st1" d="M47.48,52.87c5.53-2.88,10.22-8.11,10.8-14.31c0.21-2.22-0.57-5-2.76-5.44c-1.03-0.21-2.09,0.2-3.03,0.67
		c-2.48,1.25-4.67,3.05-6.38,5.24c-1.79,2.28-3.35,5.19-6.17,5.84c-2.69,0.62-5.52-1.35-6.46-3.94c-0.94-2.59-0.29-5.55,1.1-7.94
		c3.49-5.99,10.67-8.49,16.9-11.53c1.95-0.95,4.06-2.27,4.43-4.4c0.57-3.21-3.17-5.53-6.41-5.85c-5.64-0.56-11.36,1.96-15.28,6.06
		s-6.13,9.64-6.83,15.27c-1.79-7.83,0.66-16.5,6.29-22.22c1.22-1.24,5.22-7.69,0.68-9.52C27.92-1.8,21.85,2.35,19.4,7.21
		c-3.6,7.13-4.66,18.57-1.26,25.8C9.76,29.08,17.86,8.19,12.6,6.45C9.74,5.5,6.48,5.84,4.33,7.95s-3.16,5.12-3.73,8.08
		c-1.8,9.49,0.47,19.69,6.13,27.52c4.44,6.14,10.95,10.82,18.18,13.09C31.88,58.83,41.17,56.16,47.48,52.87z"/>
	<path class="st0" d="M323.05,176.83c30.02-32.26,44.39-78.46,37.97-122.06"/>
	<path class="st1" d="M342.67,52.87c-5.53-2.88-10.22-8.11-10.8-14.31c-0.21-2.22,0.57-5,2.76-5.44c1.03-0.21,2.09,0.2,3.03,0.67
		c2.48,1.25,4.67,3.05,6.38,5.24c1.79,2.28,3.35,5.19,6.17,5.84c2.69,0.62,5.52-1.35,6.46-3.94c0.94-2.59,0.29-5.55-1.1-7.94
		c-3.49-5.99-10.67-8.49-16.9-11.53c-1.95-0.95-4.06-2.27-4.43-4.4c-0.57-3.21,3.17-5.53,6.41-5.85c5.64-0.56,11.36,1.96,15.28,6.06
		s6.13,9.64,6.83,15.27c1.79-7.83-0.66-16.5-6.29-22.22c-1.22-1.24-5.22-7.69-0.68-9.52c6.44-2.6,12.51,1.55,14.96,6.41
		c3.6,7.13,4.66,18.57,1.26,25.8c8.38-3.94,0.28-24.82,5.54-26.56c2.86-0.95,6.11-0.61,8.26,1.5s3.16,5.12,3.73,8.08
		c1.8,9.49-0.47,19.69-6.13,27.52c-4.44,6.14-10.95,10.82-18.18,13.09C358.26,58.83,348.97,56.16,342.67,52.87z"/>
	<path class="st2" d="M101.29,303.09c-25.81-28.49-38.72-67.93-38.72-118.31c0-50.38,12.9-89.82,38.72-118.31
		c25.8-28.5,60.6-42.74,104.38-42.74c43.77,0,78.46,14.25,104.07,42.74c25.6,28.49,38.41,67.93,38.41,118.31
		c0,50.39-12.81,89.82-38.41,118.31c-25.61,28.49-60.3,42.74-104.07,42.74C161.89,345.83,127.09,331.58,101.29,303.09z"/>
</g>
<g id="Calque_2">
	<path class="st3" d="M149.9,34.06c4.21,12.36,12.52,20.91,24.42,25.98c5.94,2.53,12.01,4.74,18.03,7.06
		c3.71,1.42,6.4,3.73,6.3,7.98c-0.09,3.99-2.69,6.2-6.22,7.54c-5.26,2.01-10.48,4.11-15.75,6.08
		c-13.05,4.88-21.99,13.85-26.97,26.83c-1.96,5.1-4.03,10.16-5.91,15.29c-1.42,3.87-3.5,6.92-8.06,6.86
		c-4.28-0.06-6.33-2.89-7.7-6.62c-2.06-5.59-4.32-11.11-6.53-16.64c-4.73-11.87-13.02-20.26-24.84-25.06
		c-5.66-2.3-11.44-4.3-17.16-6.43c-3.44-1.84-6.64-3.79-6.34-8.5c0.32-4.98,3.96-6.39,7.81-7.81c5.27-1.96,10.51-4.01,15.71-6.16
		c11.75-4.88,20.13-13.15,24.83-25.04c2.31-5.85,4.6-11.7,6.87-17.56c1.31-3.38,3.52-5.69,7.3-5.75c4.01-0.06,6.3,2.3,7.69,5.9
		C145.47,23.39,147.72,28.71,149.9,34.06z"/>
	<g>
		<path class="st1" d="M287.28,183.65c0,8-6.49,14.5-14.5,14.5c-8.01,0-14.49-6.5-14.49-14.5c0-8.01,6.49-14.5,14.49-14.5
			C280.79,169.15,287.28,175.64,287.28,183.65z"/>
		<path class="st4" d="M271.63,178.83c0,2.03-1.65,3.67-3.66,3.67c-2.02,0-3.66-1.64-3.66-3.67c0-2.02,1.64-3.66,3.66-3.66
			C269.99,175.17,271.63,176.81,271.63,178.83z"/>
	</g>
	<g>
		<path class="st1" d="M160.28,183.65c0,8-6.49,14.5-14.5,14.5c-8.01,0-14.49-6.5-14.49-14.5c0-8.01,6.49-14.5,14.49-14.5
			C153.79,169.15,160.28,175.64,160.28,183.65z"/>
		<path class="st4" d="M144.63,178.83c0,2.03-1.65,3.67-3.66,3.67c-2.02,0-3.66-1.64-3.66-3.67c0-2.02,1.64-3.66,3.66-3.66
			C142.99,175.17,144.63,176.81,144.63,178.83z"/>
	</g>
	<g>
		<path class="st1" d="M220.43,200.66c-0.27,6.92-4.12,13.96-11.72,14.38c-7.58,0.42-11.47-8.12-11.72-14.38
			c-0.17-4.11-6.56-4.12-6.39,0c0.43,10.6,6.9,20.15,18.11,20.78c11.19,0.63,17.72-11.15,18.11-20.78
			C226.99,196.54,220.6,196.55,220.43,200.66L220.43,200.66z"/>
	</g>
</g>
</svg>
